<mxfile host="65bd71144e">
    <diagram id="ZnUvBVadmKkvFejZgnjO" name="Page-1">
        <mxGraphModel dx="1207" dy="1139" grid="1" gridSize="10" guides="1" tooltips="1" connect="1" arrows="1" fold="1" page="1" pageScale="1" pageWidth="850" pageHeight="1100" math="0" shadow="0">
            <root>
                <mxCell id="0"/>
                <mxCell id="1" parent="0"/>
                <mxCell id="4" style="edgeStyle=none;html=1;exitX=1;exitY=0.3333333333333333;exitDx=0;exitDy=0;exitPerimeter=0;entryX=-0.024;entryY=0.497;entryDx=0;entryDy=0;entryPerimeter=0;strokeWidth=1;" parent="1" source="2" target="3" edge="1">
                    <mxGeometry relative="1" as="geometry"/>
                </mxCell>
                <mxCell id="6" value="Επιλογή &quot;Ολοκλήρωση&lt;br&gt;Μετακίνησης&quot;" style="edgeLabel;html=1;align=center;verticalAlign=middle;resizable=0;points=[];" parent="4" vertex="1" connectable="0">
                    <mxGeometry x="-0.1433" y="2" relative="1" as="geometry">
                        <mxPoint as="offset"/>
                    </mxGeometry>
                </mxCell>
                <mxCell id="2" value="Οδηγός Ταξί" style="shape=umlActor;verticalLabelPosition=bottom;verticalAlign=top;html=1;" parent="1" vertex="1">
                    <mxGeometry x="120" y="260" width="30" height="60" as="geometry"/>
                </mxCell>
                <mxCell id="69" style="edgeStyle=none;html=1;entryX=-0.011;entryY=0.52;entryDx=0;entryDy=0;entryPerimeter=0;" parent="1" source="3" target="11" edge="1">
                    <mxGeometry relative="1" as="geometry"/>
                </mxCell>
                <mxCell id="3" value="Οθόνη&amp;nbsp; Μετακίνησης" style="shape=umlBoundary;whiteSpace=wrap;html=1;strokeWidth=1;" parent="1" vertex="1">
                    <mxGeometry x="350" y="250" width="100" height="80" as="geometry"/>
                </mxCell>
                <mxCell id="10" value="" style="edgeStyle=none;html=1;strokeWidth=1;" parent="1" source="7" target="9" edge="1">
                    <mxGeometry relative="1" as="geometry"/>
                </mxCell>
                <mxCell id="71" style="edgeStyle=none;html=1;entryX=-0.025;entryY=0.5;entryDx=0;entryDy=0;entryPerimeter=0;" parent="1" source="7" target="15" edge="1">
                    <mxGeometry relative="1" as="geometry"/>
                </mxCell>
                <mxCell id="7" value="Ενημέρωση κατάστασης αιτήματος" style="ellipse;shape=umlControl;whiteSpace=wrap;html=1;strokeWidth=1;" parent="1" vertex="1">
                    <mxGeometry x="685" y="245" width="80" height="90" as="geometry"/>
                </mxCell>
                <mxCell id="9" value="Βάση Δεδομένων" style="ellipse;shape=umlEntity;whiteSpace=wrap;html=1;strokeWidth=1;" parent="1" vertex="1">
                    <mxGeometry x="685" y="110" width="80" height="80" as="geometry"/>
                </mxCell>
                <mxCell id="70" style="edgeStyle=none;html=1;" parent="1" source="11" edge="1">
                    <mxGeometry relative="1" as="geometry">
                        <mxPoint x="680" y="290" as="targetPoint"/>
                    </mxGeometry>
                </mxCell>
                <mxCell id="73" style="edgeStyle=none;html=1;entryX=0.5;entryY=1;entryDx=0;entryDy=0;" edge="1" parent="1" source="11" target="72">
                    <mxGeometry relative="1" as="geometry"/>
                </mxCell>
                <mxCell id="11" value="Υπολογισμός κόστους μετακίνησης" style="ellipse;shape=umlControl;whiteSpace=wrap;html=1;strokeWidth=1;" parent="1" vertex="1">
                    <mxGeometry x="520" y="240" width="90" height="100" as="geometry"/>
                </mxCell>
                <mxCell id="18" value="" style="edgeStyle=none;html=1;strokeWidth=1;" parent="1" source="15" target="17" edge="1">
                    <mxGeometry relative="1" as="geometry"/>
                </mxCell>
                <mxCell id="20" value="Πορτοφόλι" style="edgeStyle=none;html=1;strokeWidth=1;entryX=0.525;entryY=0.011;entryDx=0;entryDy=0;entryPerimeter=0;" parent="1" source="15" target="28" edge="1">
                    <mxGeometry x="0.0154" relative="1" as="geometry">
                        <mxPoint as="offset"/>
                        <mxPoint x="883.75" y="395" as="targetPoint"/>
                    </mxGeometry>
                </mxCell>
                <mxCell id="39" value="Μετρητά" style="edgeStyle=none;html=1;fillColor=#f8cecc;strokeColor=#b85450;strokeWidth=2;entryX=0.778;entryY=0.15;entryDx=0;entryDy=0;entryPerimeter=0;" parent="1" source="15" target="64" edge="1">
                    <mxGeometry relative="1" as="geometry">
                        <mxPoint x="730.97" y="429.98" as="targetPoint"/>
                    </mxGeometry>
                </mxCell>
                <mxCell id="15" value="Έλεγχος τρόπου πληρωμής" style="ellipse;shape=umlControl;whiteSpace=wrap;html=1;strokeWidth=1;" parent="1" vertex="1">
                    <mxGeometry x="848.75" y="250" width="70" height="80" as="geometry"/>
                </mxCell>
                <mxCell id="17" value="TaxiRequest" style="ellipse;shape=umlEntity;whiteSpace=wrap;html=1;strokeWidth=1;" parent="1" vertex="1">
                    <mxGeometry x="845" y="120" width="80" height="80" as="geometry"/>
                </mxCell>
                <mxCell id="63" style="edgeStyle=none;html=1;entryX=0.5;entryY=0;entryDx=0;entryDy=0;" parent="1" source="28" target="62" edge="1">
                    <mxGeometry relative="1" as="geometry"/>
                </mxCell>
                <mxCell id="68" style="edgeStyle=none;html=1;entryX=1.033;entryY=0.54;entryDx=0;entryDy=0;entryPerimeter=0;" parent="1" source="28" target="64" edge="1">
                    <mxGeometry relative="1" as="geometry"/>
                </mxCell>
                <mxCell id="28" value="Προσθήκη χρηματικού ποσού σε οδηγό" style="ellipse;shape=umlControl;whiteSpace=wrap;html=1;strokeWidth=1;" parent="1" vertex="1">
                    <mxGeometry x="845" y="410" width="80" height="90" as="geometry"/>
                </mxCell>
                <mxCell id="62" value="Wallet" style="ellipse;shape=umlEntity;whiteSpace=wrap;html=1;" parent="1" vertex="1">
                    <mxGeometry x="843.75" y="550" width="80" height="80" as="geometry"/>
                </mxCell>
                <mxCell id="67" style="edgeStyle=none;html=1;entryX=1.03;entryY=0.488;entryDx=0;entryDy=0;entryPerimeter=0;" parent="1" source="64" target="66" edge="1">
                    <mxGeometry relative="1" as="geometry"/>
                </mxCell>
                <mxCell id="64" value="Εμφάνισε" style="ellipse;shape=umlControl;whiteSpace=wrap;html=1;strokeWidth=1;" parent="1" vertex="1">
                    <mxGeometry x="680" y="405" width="90" height="100" as="geometry"/>
                </mxCell>
                <mxCell id="66" value="Αρχική οθόνη" style="shape=umlBoundary;whiteSpace=wrap;html=1;strokeWidth=1;" parent="1" vertex="1">
                    <mxGeometry x="505" y="420" width="100" height="80" as="geometry"/>
                </mxCell>
                <mxCell id="72" value="Timer" style="ellipse;shape=umlEntity;whiteSpace=wrap;html=1;strokeWidth=1;" vertex="1" parent="1">
                    <mxGeometry x="525" y="110" width="80" height="80" as="geometry"/>
                </mxCell>
            </root>
        </mxGraphModel>
    </diagram>
</mxfile>